<svg width="37" height="36" viewBox="0 0 37 36" fill="none" xmlns="http://www.w3.org/2000/svg">
<path d="M21.5492 35.1521C20.8546 35.1514 20.2917 34.5886 20.2909 33.894V25.5596H16.1394V33.894C16.1307 34.5755 15.5664 35.1324 14.8816 35.1324C14.1779 35.1237 13.6323 34.5781 13.6236 33.8904V25.4788C13.6236 24.1359 14.716 23.0433 16.0589 23.0433H20.3709C21.7141 23.0433 22.8067 24.1359 22.8067 25.4788V33.8937C22.8061 34.5881 22.2435 35.151 21.5492 35.1521Z" fill="#9599A4"/>
<path d="M6.10276 35.5945C5.40833 35.5937 4.84563 35.0308 4.84498 34.3364V21.554H2.23187C2.10022 21.5539 1.96941 21.5332 1.84415 21.4927C1.57088 21.4042 0.872769 21.0749 0.307028 19.9385C-0.235923 18.849 0.0298648 17.8442 0.422435 17.3148C0.459213 17.265 0.499671 17.2181 0.543468 17.1743L17.3492 0.368367C17.4657 0.251259 17.6044 0.15841 17.757 0.0951846C17.9097 0.0319588 18.0734 -0.000391218 18.2386 3.57024e-06C18.574 3.57024e-06 18.8892 0.130469 19.1267 0.366909L23.914 5.13644C24.4052 5.62717 24.4066 6.42288 23.9172 6.91535C23.8005 7.03298 23.6617 7.12627 23.5087 7.1898C23.3557 7.25333 23.1916 7.28583 23.026 7.28542C22.8611 7.28584 22.6977 7.25364 22.5453 7.19068C22.3929 7.12771 22.2545 7.03521 22.138 6.91851L18.2402 3.03527L2.2377 19.0377H6.1028C6.79722 19.0385 7.36001 19.6013 7.36082 20.2957V33.0781H29.1503V20.2957C29.1511 19.6012 29.7139 19.0385 30.4084 19.0377H33.6512L27.7298 13.1391C27.4936 12.9026 27.3606 12.5822 27.3598 12.248V7.10933C27.3598 6.4158 27.9241 5.85127 28.6178 5.85127C29.3117 5.85127 29.8759 6.41555 29.8759 7.10937V11.7259L35.8656 17.6924C35.939 17.7655 36.0031 17.8474 36.0564 17.9363C36.1711 18.1276 36.7177 19.1325 36.2364 20.1929C35.7523 21.2606 34.6296 21.4995 34.4094 21.5363C34.3404 21.548 34.2704 21.5538 34.2004 21.5538H31.6664V34.3362C31.6658 35.0305 31.1034 35.5934 30.409 35.5945H6.10276Z" fill="#9599A4"/>
</svg>
