<svg width="38" height="36" viewBox="0 0 38 36" fill="none" xmlns="http://www.w3.org/2000/svg">
<path d="M25.8911 35.908H23.2359C21.7612 35.908 20.4565 35.1179 19.7675 33.8913C19.2026 33.9097 18.6372 33.9097 18.0723 33.8913C17.3833 35.1178 16.0786 35.908 14.6039 35.908H11.9487C9.7528 35.908 7.96579 34.121 7.96579 31.9251V30.8272C5.51727 29.109 3.85429 26.7754 3.10542 24.0007C1.32765 23.5964 0 22.0023 0 20.105C0 18.1343 1.4333 16.4943 3.30758 16.1681C5.3105 9.69987 11.7144 5.10141 18.9176 5.10141C20.6587 5.10141 22.363 5.35865 23.9985 5.86857L25.271 4.70171C25.9233 4.10452 26.764 3.79214 27.6598 3.83347C28.5464 3.87023 29.3641 4.25154 29.9613 4.90387C30.655 5.66185 30.9582 6.67711 30.7928 7.68776L30.4667 9.65393C31.4141 10.5508 32.2431 11.5651 32.9336 12.6721H33.8569C36.0528 12.6721 37.8398 14.4591 37.8398 16.655V23.2932C37.8398 25.489 36.0528 27.2761 33.8569 27.2761H33.2965C32.4282 28.6496 31.2798 29.8395 29.874 30.8272V31.9251C29.874 34.121 28.0916 35.908 25.8911 35.908ZM21.714 31.2143L21.9691 32.3413C22.1036 32.9442 22.6555 33.3848 23.2769 33.3848H25.9575C26.6948 33.3848 27.2977 32.7819 27.2977 32.0445V29.4753L27.9284 29.0811C29.4913 28.1025 30.6878 26.855 31.4901 25.3756L31.8704 24.6753H33.9991C34.7364 24.6753 35.3393 24.0724 35.3393 23.3351V16.6245C35.3393 15.8871 34.7364 15.2842 33.9991 15.2842H31.5086L31.1284 14.5932C30.3956 13.2715 29.431 12.0842 28.2577 11.064L27.6919 10.5724L28.2624 7.13125C28.2948 6.92723 28.2345 6.72314 28.0954 6.57008C27.9331 6.38922 27.7337 6.35676 27.6316 6.35214C27.5203 6.34749 27.3302 6.36603 27.1493 6.52835L24.6821 8.79156L23.9169 8.5133C22.3262 7.93363 20.6474 7.6368 18.9269 7.6368C12.527 7.6368 6.88762 11.8756 5.51027 17.7143L5.26909 18.7485H3.86389C3.11724 18.7485 2.50973 19.356 2.50973 20.1027C2.50973 20.8493 3.11724 21.4569 3.86389 21.4569H5.1717L5.37575 22.5513C5.88126 25.2736 7.4534 27.5275 9.92524 29.0718L10.556 29.466V32.0399C10.556 32.7773 11.1589 33.3802 11.8963 33.3802H14.5768C15.1982 33.3802 15.7455 32.9442 15.8846 32.3367L16.1396 31.2098L17.2898 31.2932C18.3611 31.3721 19.5019 31.3721 20.5732 31.2932L21.7141 31.2144L21.714 31.2143Z" fill="#9599A4"/>
<path d="M10.5826 7.21692C10.5826 9.13097 11.3429 10.9666 12.6964 12.3201C14.0498 13.6735 15.8855 14.4338 17.7995 14.4338C19.7135 14.4338 21.5492 13.6735 22.9026 12.3201C24.2561 10.9666 25.0164 9.13097 25.0164 7.21692C25.0164 5.30288 24.2561 3.46722 22.9026 2.11379C21.5492 0.760352 19.7135 0 17.7995 0C15.8855 0 14.0498 0.760352 12.6964 2.11379C11.3429 3.46722 10.5826 5.30288 10.5826 7.21692Z" fill="white"/>
<path d="M17.7995 0C21.7853 0 25.0164 3.23115 25.0164 7.21692C25.0164 11.2027 21.7853 14.4338 17.7995 14.4338C13.8137 14.4338 10.5826 11.2027 10.5826 7.21692C10.5826 3.23115 13.8137 0 17.7995 0ZM17.7995 2.59069C15.2445 2.59069 13.1733 4.66194 13.1733 7.21692C13.1733 9.7719 15.2445 11.8432 17.7995 11.8432C20.3545 11.8432 22.4257 9.7719 22.4257 7.21692C22.4257 4.66194 20.3545 2.59069 17.7995 2.59069Z" fill="#9599A4"/>
<path d="M24.5671 17.9825C24.5671 19.0811 25.4577 19.9717 26.5562 19.9717C27.6549 19.9717 28.5454 19.0811 28.5454 17.9825C28.5454 16.8839 27.6549 15.9933 26.5562 15.9933C25.4577 15.9933 24.5671 16.8839 24.5671 17.9825Z" fill="#9599A4"/>
</svg>
