<svg width="103" height="40" viewBox="0 0 103 40" fill="none" xmlns="http://www.w3.org/2000/svg">
<g filter="url(#filter0_d_639_3558)">
<path d="M86.968 8.05434C92.0255 9.04941 94.1011 11.8158 94.5319 16.4116C94.9115 20.4534 93.0479 23.36 88.7188 25.1484C83.9999 27.0941 79.6435 26.0648 75.9025 22.8505C72.9549 20.3167 72.5583 16.8869 73.8508 13.3614C75.1571 9.75725 78.1286 8.27319 81.7327 7.82866C83.4811 7.75265 85.2327 7.82815 86.968 8.05434Z" fill="#F4C01C"/>
<path d="M9.96746 25.4285C8.87664 23.9137 9.13653 22.1082 8.90058 20.4155C8.37826 16.6259 8.07911 12.8089 8.00467 8.98414C7.94996 6.54604 8.34662 6.19725 10.7403 5.79717C14.1598 5.21586 17.6066 4.92862 21.0535 5.69459C25.7108 6.72044 26.4802 8.70716 26.4802 12.4823C26.4802 13.2243 26.4802 14.9512 26.2169 15.5598C25.6593 17.0947 24.5243 18.3511 23.0539 19.0614C21.3441 19.6666 20.4345 19.6701 18.7727 19.9402C17.2578 20.1864 16.5876 20.8395 16.5603 22.3339C16.5603 23.1511 16.7244 24.0436 16.1807 24.7856C14.2145 25.9517 12.0978 25.791 9.96746 25.4285Z" fill="#8268FC"/>
<path d="M64.2588 21.0245C64.2588 22.0846 64.3067 23.1481 64.2588 24.2047C64.1631 25.8734 63.4382 26.294 60.5589 26.4581C57.7584 26.6154 56.8796 26.253 56.6744 24.6287C56.0897 20.0055 56.0794 15.3516 56.1033 10.6977C56.1033 9.16574 56.1273 7.62013 56.1033 6.10187C56.1033 4.86401 56.6231 4.19038 57.902 4.1596C59.2698 4.12541 60.6376 4.10489 61.9849 4.00914C63.3321 3.9134 63.828 4.57335 63.8348 5.81805C63.8348 8.2117 63.869 10.5848 63.91 12.9682C63.91 13.3888 63.7151 14.0146 64.2759 14.1479C64.8367 14.2813 64.9359 13.6282 65.1718 13.276C65.4528 12.8504 65.7019 12.4046 65.9173 11.9424C66.649 10.3831 67.8391 9.64104 69.5796 9.7402C70.6054 9.79833 71.6313 9.7402 72.6571 9.78466C73.1427 9.80517 73.7787 9.6513 74.0249 10.2326C74.2711 10.8139 73.765 11.1866 73.4812 11.5799C72.7973 12.5408 72.0382 13.4743 71.2893 14.401C70.3079 15.6149 70.2635 16.8357 71.1115 18.1624C72.3972 20.0979 73.6248 22.0675 74.9106 24.0029C75.5945 25.0288 75.4338 25.5691 74.148 25.6272C73.9774 25.6328 73.8072 25.6488 73.6385 25.6751C69.9831 26.359 66.8508 25.9281 65.3633 21.8794C65.1788 21.5355 64.9488 21.2181 64.6794 20.9356L64.2588 21.0245Z" fill="#47C4EA"/>
<path d="M45.852 21.5204C46.2521 22.6489 47.0693 22.8882 47.9276 22.9327C49.4014 23.0353 50.8753 23.0797 52.3525 23.1207C53.881 23.1618 54.1511 24.2218 54.2947 25.4221C54.4384 26.6223 53.8126 27.2823 52.7355 27.4738C49.5588 28.0277 46.3991 28.0824 43.366 26.7591C41.8835 26.1495 40.6345 25.0823 39.801 23.7131C38.9676 22.3438 38.5932 20.7442 38.7326 19.1473C38.9822 15.7278 41.2699 12.7699 44.4022 11.833C49.2544 10.3797 53.7989 12.5169 55.177 16.8767C55.2795 17.201 55.3516 17.5342 55.3924 17.8718C55.8062 21.2366 55.2967 21.7735 51.9182 21.6025C50.1024 21.5102 48.2867 21.4555 46.4675 21.3939C46.2588 21.4168 46.0528 21.4592 45.852 21.5204Z" fill="#F4C01C"/>
<path d="M27.5502 16.0731C28.4667 15.4405 32.2965 13.9907 35.0013 15.2935C35.5747 15.5432 36.0948 15.9008 36.5333 16.3467C37.4771 17.3725 38.4379 18.5078 37.966 19.9577C37.5694 21.1853 36.2153 21.387 35.0834 21.6674C33.9516 21.9478 32.8231 22.1462 31.4451 22.4334C32.5256 23.3156 33.4626 23.2233 34.4064 23.0557C35.1313 22.9292 35.8494 22.7138 36.5777 22.6488C37.3061 22.5838 37.7096 23.0523 37.9455 23.6747C38.1815 24.297 38.2088 24.8818 37.6993 25.4049C34.4987 28.6911 26.8116 26.9198 25.4986 22.5668C25.1251 21.2898 25.1466 19.9297 25.5601 18.6651C25.9366 17.6145 26.6325 16.7082 27.5502 16.0731Z" fill="#F79933"/>
<path d="M9.96777 25.422C10.9116 25.398 11.8519 25.3673 12.7957 25.3536C13.8557 25.3536 14.9329 25.4493 15.7536 24.5124C16.0135 24.2149 16.0955 24.5671 16.1742 24.7688C15.1415 26.0101 11.8793 26.3555 9.96777 25.422Z" fill="#8268FC"/>
</g>
<defs>
<filter id="filter0_d_639_3558" x="0" y="0" width="102.58" height="39.8428" filterUnits="userSpaceOnUse" color-interpolation-filters="sRGB">
<feFlood flood-opacity="0" result="BackgroundImageFix"/>
<feColorMatrix in="SourceAlpha" type="matrix" values="0 0 0 0 0 0 0 0 0 0 0 0 0 0 0 0 0 0 127 0" result="hardAlpha"/>
<feOffset dy="4"/>
<feGaussianBlur stdDeviation="4"/>
<feComposite in2="hardAlpha" operator="out"/>
<feColorMatrix type="matrix" values="0 0 0 0 0 0 0 0 0 0 0 0 0 0 0 0 0 0 0.09 0"/>
<feBlend mode="normal" in2="BackgroundImageFix" result="effect1_dropShadow_639_3558"/>
<feBlend mode="normal" in="SourceGraphic" in2="effect1_dropShadow_639_3558" result="shape"/>
</filter>
</defs>
</svg>
