<svg width="32" height="30" viewBox="0 0 32 30" fill="none" xmlns="http://www.w3.org/2000/svg">
<path d="M29.7137 27.8572H20.5712C19.6954 27.9107 18.8398 28.1279 18.0548 28.4959C17.2698 28.8638 16.5712 29.3752 16 30C15.4289 29.3752 14.7302 28.8638 13.9452 28.4958C13.1602 28.1278 12.3046 27.9107 11.4288 27.8572H2.28633C1.684 27.8457 1.10974 27.6162 0.683736 27.2169C0.257731 26.8175 0.0129882 26.2791 0.000721604 25.7144V2.14349C-0.00696976 1.86012 0.0468921 1.57825 0.159032 1.31501C0.271172 1.05178 0.439248 0.812671 0.653039 0.612238C0.86683 0.411804 1.12187 0.25423 1.40265 0.149096C1.68343 0.0439623 1.98408 -0.0065343 2.28633 0.000676519H11.4288C13.143 0.000676519 16 0.832086 16 2.14349C16 0.832086 18.857 0.000676519 20.5712 0.000676519H29.7137C30.0159 -0.0065343 30.3166 0.0439623 30.5974 0.149096C30.8781 0.25423 31.1332 0.411804 31.347 0.612238C31.5608 0.812671 31.7288 1.05178 31.841 1.31501C31.9531 1.57825 32.007 1.86012 31.9993 2.14349V25.7144C31.987 26.2791 31.7423 26.8175 31.3163 27.2169C30.8903 27.6162 30.316 27.8457 29.7137 27.8572ZM29.7137 2.14349H20.5712C19.3416 2.14349 17.1428 3.44417 17.1428 4.28629V23.5716H14.8572V4.28629C14.8572 3.4431 12.6584 2.14349 11.4288 2.14349H2.28633V25.7144H11.4288C12.3255 25.6559 13.2225 25.8238 14.0264 26.2007C14.8304 26.5776 15.5119 27.1496 16 27.8572C16.4881 27.1496 17.1696 26.5776 17.9736 26.2007C18.7775 25.8238 19.6745 25.6559 20.5712 25.7144H29.7137V2.14349Z" fill="#8268FC"/>
</svg>
